# xmcd
#
# Track frame offsets: 
#        150
#        12388
#        35460
#        48228
#        73162
#        87961
#        105778
#        119317
#        133516
#        147845
#        164346
#        174820
#        181428
#
# Disc length: 2630 seconds
#
# Revision: 0
# Processed by: cddbd v1.5.2PL0 Copyright (c) Steve Scherf et al.
# Submitted via: ExactAudioCopy v0.95b3
#
DISCID=a40a440d
DTITLE=Trouble and Satisfaction - Marg Layton
DYEAR=1999
DGENRE=Blues
TTITLE0=Wild Women Don't Have The Blues
TTITLE1=See That My Grave Is Kept Clean
TTITLE2=Travelling Riverside Blues
TTITLE3=Trouble Then Satisfaction
TTITLE4=Down In The Dumps
TTITLE5=St Louis Blues
TTITLE6=You Gotta Move
TTITLE7=No More My Lord
TTITLE8=Big Road Blues
TTITLE9=If You Can't Say No
TTITLE10=Me And My Chauffeur Blues
TTITLE11=If You're A Viper
TTITLE12=Down Hearted Blues
EXTD=
EXTT0=
EXTT1=
EXTT2=
EXTT3=
EXTT4=
EXTT5=
EXTT6=
EXTT7=
EXTT8=
EXTT9=
EXTT10=
EXTT11=
EXTT12=
PLAYORDER=
